<svg t="1565171118260" class="icon" viewBox="0 0 1024 1024" version="1.1" xmlns="http://www.w3.org/2000/svg" p-id="10510" width="200" height="200"><path d="M905.846154 858.584615H118.153846c-17.329231 0-31.507692-14.178462-31.507692-31.507692V196.923077c0-17.329231 14.178462-31.507692 31.507692-31.507692h787.692308c17.329231 0 31.507692 14.178462 31.507692 31.507692v630.153846c0 17.329231-14.178462 31.507692-31.507692 31.507692z m-756.184616-63.015384h724.676924V228.430769H149.661538v567.138462z" fill="#ffffff" p-id="10511" data-spm-anchor-id="a313x.7781069.0.i48" class="selected"></path><path d="M905.846154 196.923077L512 512 118.153846 196.923077z" fill="#ffffff" p-id="10512" data-spm-anchor-id="a313x.7781069.0.i46" class="selected"></path><path d="M512 543.507692c-7.089231 0-14.178462-2.363077-19.692308-7.08923l-393.846154-315.076924c-10.24-8.664615-14.178462-22.055385-10.24-34.658461 4.726154-12.603077 16.541538-21.267692 29.932308-21.267692h787.692308c13.390769 0 25.206154 8.664615 29.932308 21.267692 4.726154 12.603077 0.787692 26.781538-10.24 34.658461l-393.846154 315.076924c-5.513846 4.726154-12.603077 7.089231-19.692308 7.08923zM207.950769 228.430769L512 471.827692 816.049231 228.430769H207.950769z" fill="#ffffff" p-id="10513" data-spm-anchor-id="a313x.7781069.0.i47" class="selected"></path></svg>