<svg t="1565171261661" class="icon" viewBox="0 0 1110 1024" version="1.1" xmlns="http://www.w3.org/2000/svg" p-id="728" width="200" height="200"><path d="M881.74273 1023.520254C877.699159 1023.520254 873.655588 1022.595031 869.954693 1020.710315L554.624717 860.132586 239.329009 1020.710315C230.830657 1025.062294 220.413323 1024.342675 212.600322 1018.8256 204.787321 1013.342793 200.880821 1004.02202 202.525663 994.804049L262.733744 654.630101 7.680386 413.72924C0.758341 407.184138-1.74319 397.417887 1.238087 388.542592 4.253631 379.633029 12.169434 373.156463 21.73008 371.785761L374.240345 322.166352 531.871066 12.661859C540.403685-4.12924 568.880017-4.12924 577.378369 12.661859L735.043357 322.166352 1087.553622 371.785761C1097.114268 373.156463 1105.030072 379.633029 1108.045616 388.542592 1110.992625 397.417887 1108.525362 407.184138 1101.603317 413.72924L846.51569 654.630101 906.75804 994.804049C908.402882 1004.02202 904.462114 1013.342793 896.683381 1018.8256 892.262867 1021.943947 887.019932 1023.520254 881.74273 1023.520254Z" p-id="729" data-spm-anchor-id="a313x.7781069.0.i0" class="selected" fill="#ffffff"></path></svg>