<svg t="1565170950430" class="icon" viewBox="0 0 1024 1024" version="1.1" xmlns="http://www.w3.org/2000/svg" p-id="9155" width="200" height="200"><path d="M66.782609 924.134235C66.782609 969.608815 130.972243 985.953681 257.76783 995.765876 331.288591 1001.455349 401.862423 1002.894679 502.427813 1002.894679 602.993205 1002.894679 673.567041 1001.455349 747.087805 995.765876 873.883394 985.953681 938.07303 969.608815 938.07303 924.134235 938.07303 825.974495 774.50248 736.398861 595.619074 701.056454L613.505149 721.260914 606.548627 626.758874 591.370485 649.517252C654.776057 628.438243 691.139629 584.871455 720.624818 508.35086L705.594902 521.854371C734.17163 514.224742 759.734699 495.083124 776.510549 468.236154 809.881809 414.830975 798.875029 346.43479 749.832366 315.789533 745.213961 312.903634 740.384002 310.439413 735.380137 308.408031L727.006747 329.03405 749.267616 329.034063C749.267674 231.893691 734.805638 170.253077 697.251519 128.171924L680.642702 142.993986 690.32086 163.040919C719.255561 149.071966 735.840817 129.999886 718.216562 104.822382 709.954444 93.019362 697.000982 82.663818 680.392619 72.869332 671.685663 67.734561 662.478251 63.077009 653.284005 58.940281 647.750834 56.450764 643.381622 54.659471 640.724231 53.649603L651.080936 87.184568C652.364137 85.3429 653.877439 82.783752 655.342734 79.55589 658.504686 72.590493 660.228875 65.211059 659.389347 57.176658 656.980636 34.124972 636.728663 22.26087 605.701294 22.26087 575.73827 22.26087 540.01128 40.037617 499.960267 68.57767L512.878801 86.706591 513.473932 64.453678C507.353609 64.289996 501.07274 64.20845 494.625489 64.20845 304.581703 64.20845 240.601567 135.020548 239.988322 325.629333L262.249077 325.700952 254.757457 304.738559C248.424009 307.002031 242.342473 309.94204 236.587061 313.538421 187.544398 344.183678 176.53762 412.579863 209.90888 465.985042 227.234393 493.711658 253.92605 513.201232 283.566586 520.297476L267.930738 506.530117C300.980553 593.828192 332.369734 632.815046 400.098695 649.972366L383.319411 627.574348 379.84115 722.076383 397.859931 701.039309C222.511627 734.952488 66.782609 823.693833 66.782609 924.134235Z" p-id="9156" fill="#ffffff"></path></svg>